<?xml version="1.0" standalone="no"?>
<!DOCTYPE svg PUBLIC "-//W3C//DTD SVG 20010904//EN"
 "http://www.w3.org/TR/2001/REC-SVG-20010904/DTD/svg10.dtd">
<svg version="1.0" xmlns="http://www.w3.org/2000/svg"
 width="1280.000000pt" height="1287.000000pt" viewBox="0 0 1280.000000 1287.000000"
 preserveAspectRatio="xMidYMid meet">
<metadata>
Created by potrace 1.16, written by Peter Selinger 2001-2019
</metadata>
<g transform="translate(0.000000,1287.000000) scale(0.100000,-0.100000)"
fill="#000000" stroke="none">
<path d="M10115 12864 c-396 -40 -730 -104 -1095 -209 -1571 -455 -3319 -1534
-4945 -3055 -216 -202 -700 -688 -885 -890 -1252 -1358 -2202 -2804 -2735
-4160 -221 -562 -356 -1062 -426 -1585 -20 -149 -23 -213 -24 -510 0 -277 3
-362 18 -460 86 -574 304 -1021 658 -1349 320 -296 721 -475 1244 -553 169
-25 739 -25 930 0 418 55 759 134 1174 269 1503 490 3164 1544 4696 2978 223
209 680 669 885 890 747 808 1447 1731 1942 2564 l28 46 127 0 c149 0 253 21
367 74 252 116 429 328 502 601 14 52 19 105 19 205 0 160 -16 232 -80 365
-41 85 -134 212 -174 237 -17 10 -15 18 26 122 70 176 188 535 243 736 90 331
155 686 181 997 17 206 7 630 -19 798 -44 283 -111 502 -222 731 -306 629
-862 1014 -1640 1135 -112 18 -189 22 -445 24 -170 2 -328 1 -350 -1z m705
-559 c370 -58 646 -175 884 -373 228 -190 398 -478 485 -817 152 -595 52
-1435 -275 -2321 -36 -99 -72 -198 -80 -220 l-15 -41 -105 -12 c-246 -28 -461
-145 -608 -332 -33 -42 -62 -77 -63 -75 -1 1 20 70 47 154 140 432 210 839
210 1232 0 465 -97 826 -307 1144 -88 133 -282 328 -413 415 -215 143 -442
231 -731 283 -111 20 -156 23 -424 23 -312 0 -378 -6 -650 -56 -822 -151
-1834 -617 -2795 -1287 -871 -608 -1717 -1382 -2432 -2225 -821 -969 -1447
-2005 -1778 -2942 -50 -141 -120 -370 -144 -472 l-18 -71 -51 -17 c-83 -27
-217 -102 -286 -160 -162 -137 -260 -300 -306 -508 -21 -96 -16 -299 9 -392
76 -278 318 -506 598 -566 46 -10 52 -15 67 -53 80 -206 196 -382 360 -547
277 -276 613 -430 1059 -485 186 -22 574 -15 777 15 863 128 1803 530 2810
1202 957 639 1876 1470 2661 2408 658 786 1187 1614 1534 2401 40 91 74 166
75 168 1 1 0 -42 -3 -95 -9 -206 46 -380 181 -567 16 -22 -360 -608 -636 -990
-1938 -2690 -4868 -4895 -7190 -5411 -545 -121 -1076 -137 -1472 -45 -313 73
-581 216 -780 415 -485 484 -601 1314 -336 2390 316 1279 1147 2776 2332 4201
1583 1904 3610 3470 5453 4211 610 245 1173 388 1716 437 111 10 539 -3 640
-19z m-1060 -1500 c199 -36 374 -103 511 -195 82 -56 213 -187 269 -269 248
-369 286 -938 109 -1636 -240 -951 -866 -2072 -1748 -3129 -437 -525 -955
-1049 -1477 -1497 -857 -735 -1749 -1299 -2595 -1639 -758 -306 -1433 -402
-1925 -275 -316 82 -575 280 -707 541 l-26 51 63 41 c183 120 321 313 377 527
30 114 30 308 0 420 -58 216 -200 399 -386 496 -33 18 -61 33 -62 34 -5 3 57
213 101 343 483 1405 1667 3012 3151 4278 1156 985 2423 1676 3439 1873 83 16
194 34 246 40 52 6 109 13 125 15 76 11 444 -3 535 -19z m2151 -2848 c119 -58
172 -189 130 -324 -73 -238 -364 -334 -518 -172 -63 66 -85 163 -58 256 33
119 127 216 245 254 41 14 162 5 201 -14z m-9949 -4194 c87 -47 128 -121 128
-230 0 -153 -113 -290 -271 -329 -85 -21 -160 -7 -222 40 -197 150 -109 454
158 543 58 19 147 9 207 -24z"/>
<path d="M7371 10065 c-368 -95 -643 -419 -668 -787 l-6 -88 -111 -66 c-546
-327 -1084 -753 -1586 -1254 -1038 -1039 -1732 -2220 -1856 -3160 -24 -184
-15 -476 19 -620 118 -498 452 -800 969 -876 152 -22 442 -15 612 15 688 124
1476 518 2254 1129 1277 1001 2294 2385 2587 3517 55 216 77 360 82 565 12
423 -87 718 -321 958 -228 235 -520 342 -935 342 -88 0 -161 4 -161 9 0 21
-151 168 -217 211 -189 124 -436 163 -662 105z m342 -548 c108 -64 154 -177
122 -302 -59 -228 -328 -342 -500 -211 -41 32 -85 114 -92 175 -17 142 100
308 250 357 65 21 166 12 220 -19z m962 -347 c121 -31 200 -74 276 -149 75
-75 117 -153 151 -276 28 -106 31 -370 4 -515 -68 -374 -226 -777 -478 -1217
-532 -929 -1448 -1901 -2388 -2532 -735 -494 -1440 -764 -1930 -738 -210 11
-350 65 -461 176 -114 114 -166 253 -176 471 -22 495 258 1218 755 1945 288
422 554 739 966 1151 475 474 899 815 1389 1118 l108 67 60 -55 c167 -155 413
-234 642 -207 378 44 677 307 772 676 8 32 15 72 15 89 l0 29 108 -6 c59 -3
143 -15 187 -27z"/>
<path d="M6315 7473 c-142 -19 -317 -86 -445 -171 -461 -307 -614 -910 -349
-1378 52 -92 201 -249 294 -309 76 -50 189 -99 291 -127 65 -17 107 -21 239
-21 141 -1 171 2 257 26 302 81 549 278 687 547 164 321 161 673 -10 976 -58
103 -215 264 -316 323 -163 96 -333 142 -515 140 -56 -1 -116 -4 -133 -6z
m216 -543 c222 -42 367 -252 329 -478 -46 -274 -323 -486 -578 -443 -239 41
-387 257 -339 493 38 186 170 341 342 403 104 36 156 42 246 25z"/>
</g>
</svg>
